<svg xmlns="http://www.w3.org/2000/svg" width="1024" height="306.985" viewBox="0 0 1024 306.985"><path fill="#88A5A4" d="M650.267 58.72c.31-5.14-.174-10.354-1.576-15.348-1.4-4.984-3.73-9.75-6.98-13.842-.524-.662-1.078-1.3-1.647-1.927 0-2-.236-4.087-1.328-6.14-.355-.63-.768-1.203-1.365-1.76-.512-.485-1.18-.922-1.86-1.212-1.384-.59-2.828-.687-4.133-.567-1.31.128-2.534.43-3.697.828-4.114-1.775-8.542-2.802-12.993-3.043-10.406-.598-20.71 2.808-29.16 8.58-4.242 2.886-8.06 6.377-11.344 10.303-3.314 3.93-5.97 8.294-8.37 12.727-4.77 8.897-8.652 18.152-12.4 27.438-7.425 18.598-14.06 37.453-21.34 56.045-3.643 9.29-7.42 18.533-11.628 27.562-2.108 4.513-4.325 8.975-6.742 13.316-1.207 2.172-2.47 4.31-3.8 6.402-.502.785-1.022 1.556-1.545 2.326-.582-.553-1.488-.627-1.833.006-7.174 13.203-39.964 51.432-58.694 77.635-4.694 6.566-10.154 15.842-11.815 19.512-3.48 7.68-12.553 21.85-3.997 27.962 8.557 6.117 20.27-8.674 24.73-12.967 2.832-2.725 10.132-10.445 15.075-17.36 18.627-26.058 43.88-69.77 54.46-80.657.676-.695.137-1.642-.777-1.98 1.138-1.488 2.306-2.954 3.526-4.38 6.49-7.536 13.76-14.397 21.17-21.066 14.88-13.3 30.518-25.747 45.932-38.483 7.71-6.37 15.387-12.79 22.84-19.5 3.725-3.353 7.392-6.785 10.927-10.373 3.524-3.59 6.955-7.33 9.96-11.454l.006-.01c5.97-8.306 9.78-18.27 10.4-28.573zM510.33 185.905c.18-.465.41-.815.754-1.29l.98-1.393c1.293-1.865 2.53-3.766 3.73-5.685 2.397-3.844 4.65-7.77 6.822-11.73 4.344-7.93 8.377-16.01 12.307-24.136 7.855-16.253 15.25-32.707 23.002-48.97 3.884-8.124 7.842-16.21 12.14-24.092 4.323-7.86 8.908-15.572 15.09-21.92 6.11-6.342 13.447-11.705 21.674-14.58.762-.26 1.535-.49 2.313-.7-5.61 5.236-10.676 10.997-15.312 17.074-5.59 7.388-10.38 15.25-15.103 23.117-4.698 7.885-9.23 15.854-13.726 23.843-8.985 15.978-17.787 32.044-26.872 47.942-4.566 7.938-9.19 15.84-13.992 23.63-2.402 3.89-4.85 7.756-7.375 11.565-1.262 1.902-2.545 3.795-3.856 5.658-.764 1.02-1.615 2.264-2.084 3.66-.263-.344-.506-.69-.727-1.038.044-.325.112-.648.236-.955zm117.186-163.77c.247.117.493.228.736.353 1.27.662 2.493 1.406 3.677 2.22-.948-.143-1.162.108-1.423.183-.86.448-1.203.82-1.676 1.218-.432.396-.832.79-1.217 1.187-.637.663-1.246 1.337-1.85 2.013-1.875-.91-3.884-1.504-5.91-1.784-.44-.062-.877-.093-1.315-.13 2.288-1.68 4.652-3.224 7.14-4.452.602-.294 1.22-.562 1.838-.807zm3.784 25.862c-3.642 8.267-8.23 16.15-13.455 23.554-5.268 7.4-11.09 14.46-16.958 21.472-5.887 7-11.892 13.91-17.923 20.803-12.06 13.787-24.256 27.466-36.213 41.365-5.957 6.966-11.912 13.938-17.67 21.082-2.88 3.574-5.71 7.188-8.443 10.882l-2.026 2.788-.502.668c-.175.197-.324.39-.514.574-.36.38-.77.697-1.195.97-.054.036-.114.056-.167.088-.468-.206-.926-.438-1.37-.696.23-.278.458-.555.688-.838 10.094-13.86 20.188-27.635 30.536-41.272 20.565-27.35 41.47-54.427 61.743-82.046 5.01-6.955 9.937-13.972 14.655-21.145 2.255-3.464 4.47-6.957 6.588-10.54.25.285.5.565.73.872 1.562 2.04 2.635 4.443 3.315 7-.577 1.483-1.177 2.96-1.818 4.42zm-118.957 139.85c.396-.968 1.06-1.816 1.735-2.775 1.33-1.88 2.624-3.772 3.903-5.68 2.552-3.817 5.022-7.684 7.447-11.58 4.843-7.788 9.508-15.683 14.108-23.61 9.233-15.837 18.206-31.818 27.335-47.694 4.568-7.937 9.172-15.852 13.927-23.662 4.777-7.787 9.62-15.558 15.16-22.734 5.565-7.156 11.756-13.873 18.667-19.672 1.608-.12 3.213-.084 4.79.146 1.463.197 2.875.604 4.208 1.177-1.51 1.788-2.97 3.6-4.426 5.423-2.668 3.367-5.27 6.78-7.84 10.214-5.128 6.87-10.1 13.853-14.98 20.892-19.474 28.16-38.406 56.66-57.72 84.904l-14.575 21.122-7.36 10.5c-1.22 1.753-2.522 3.454-3.645 5.33-.02.028-.035.06-.053.09-.377-.32-.738-.665-1.078-1.02.077-.463.212-.927.4-1.37zM626.57 33.68c-2.154 3.646-4.446 7.242-6.776 10.81-4.646 7.145-9.452 14.2-14.385 21.17-9.856 13.956-19.99 27.744-30.087 41.554l-30.36 41.388-15.17 20.706-15.057 20.763c-.243.306-.494.616-.75.92-.02-.015-.044-.026-.064-.044-.027-.018-.053-.04-.078-.058.04-.068.075-.14.116-.212 1.083-1.79 2.39-3.488 3.624-5.242l7.42-10.474 14.68-21.056c19.56-28.08 38.925-56.303 58.702-84.2 4.957-6.966 10.007-13.85 15.203-20.62 2.597-3.385 5.228-6.742 7.917-10.042 1.594-1.94 3.205-3.88 4.854-5.76.105.07.207.145.31.22-.036.058-.068.117-.1.178zM523.942 187.44c-.7.89-1.385 1.79-2.06 2.702l-1.004 1.375c-.354.49-.612.892-.975 1.213-.18.18-.377.332-.585.465-.476-.088-.962-.205-1.452-.355.262-.205.51-.424.736-.66.223-.213.432-.473.634-.703l.532-.703 2.022-2.762c2.73-3.664 5.56-7.253 8.44-10.807 5.77-7.097 11.71-14.062 17.762-20.934 12.087-13.76 24.433-27.29 36.674-40.935 6.118-6.823 12.214-13.672 18.203-20.623 5.978-6.965 11.915-13.982 17.364-21.446 5.306-7.39 9.978-15.244 13.76-23.558.192 3.852-.205 7.766-1.035 11.588-1.9 8.568-5.752 16.717-10.86 23.906-5.174 7.2-11.345 13.776-17.55 20.263-6.245 6.47-12.675 12.78-19.138 19.058-12.93 12.558-26.05 24.942-38.734 37.795-6.332 6.434-12.57 12.974-18.438 19.865-1.46 1.725-2.9 3.473-4.297 5.256zm108.38-152.796c-.486-.64-1.03-1.234-1.603-1.807.6-1.075 1.18-2.17 1.718-3.326.236-.524.465-1.042.67-1.677.09-.342.22-.62.22-1.323.003-.072-.012-.214-.04-.343-.007-.067-.052-.314-.245-.637-.018-.03-.027-.043-.045-.066 1.365 1.015 2.657 2.13 3.86 3.338-.002.013-.002.027-.002.043-.124 2.14-.53 4.32-1.062 6.477-.298 1.187-.64 2.365-1.012 3.537-.653-1.476-1.456-2.896-2.458-4.216zm1.918-13.243c.37.166.672.364.993.666.24.226.52.582.72.95.188.334.34.706.463 1.098-1.362-1.134-2.813-2.157-4.325-3.077.794-.016 1.54.093 2.15.364zM522.047 159.12c4.3-9.057 8.153-18.302 11.87-27.59 7.425-18.58 14.198-37.396 21.728-55.87 3.793-9.217 7.728-18.398 12.466-27.088 2.382-4.333 4.992-8.53 8.154-12.225 3.154-3.717 6.808-7.01 10.848-9.715 8.042-5.417 17.77-8.517 27.39-7.89 3.117.194 6.2.803 9.145 1.8-3.668 1.945-6.95 4.36-10.07 6.94-2.656.294-5.255.94-7.728 1.804-8.82 3.172-16.39 8.848-22.704 15.492-3.154 3.34-5.987 6.994-8.466 10.834-2.483 3.835-4.72 7.785-6.866 11.775-4.276 7.987-8.184 16.136-12.014 24.308-7.64 16.356-14.904 32.86-22.614 49.143-3.857 8.136-7.817 16.228-12.074 24.15-2.13 3.958-4.34 7.872-6.686 11.697-1.174 1.915-2.382 3.802-3.645 5.652l-.954 1.382c-.242.33-.508.765-.724 1.213-.323-.823-.48-1.58-.42-2.186l.465-.657c.73-1.035 1.43-2.078 2.113-3.137 1.366-2.117 2.66-4.272 3.896-6.457 2.473-4.37 4.737-8.85 6.89-13.377zM437.528 297.81c-2.126-1.52-2.17-5.1-.1-7.994 2.07-2.893 5.468-4.01 7.593-2.49 2.127 1.52 2.17 5.096.102 7.992-2.07 2.894-5.47 4.012-7.594 2.492zm179.72-190.572c-7.334 6.743-14.92 13.23-22.55 19.674-15.254 12.893-30.778 25.517-45.57 39.014-7.366 6.773-14.602 13.736-21.08 21.42-1.444 1.73-2.836 3.508-4.165 5.334-.1.047-.2.076-.297.145-.548.38-1.423.56-2.465.55.332-.36.618-.743.855-1.063l1.006-1.347c.678-.894 1.368-1.774 2.07-2.65 1.4-1.75 2.85-3.467 4.32-5.163 5.902-6.776 12.192-13.225 18.576-19.568 12.8-12.676 26.048-24.906 39.13-37.33 6.54-6.213 13.055-12.463 19.41-18.9 6.32-6.465 12.61-13.004 18.054-20.395l.005-.005c5.346-7.48 9.396-15.945 11.434-24.99.994-4.522 1.486-9.202 1.08-13.904-.12-1.396-.34-2.806-.648-4.2.955-2.533 1.803-5.112 2.472-7.768.323-1.316.6-2.656.81-4.016 5.69 7.412 8.128 17.084 7.566 26.47-.542 9.683-4.098 19.142-9.743 27.066-2.837 3.99-6.14 7.673-9.567 11.247-3.447 3.565-7.04 7.005-10.702 10.38z"/><path opacity=".4" stroke="#F9F6F2" stroke-miterlimit="10" fill="none" d="M619 100.673h403M510 100.673h32"/><path fill="#88A5A4" d="M447.885 7.41L394.66 47.116c-1.127.84-1.357 2.436-.518 3.56l66.98 89.788c2.155 2.89 33.477.17 38.17 6.462l35.06 46.995-3.228 2.408 74.813 104.54c4.202 5.635 12.18 6.793 17.813 2.59l4.53-3.38c5.638-4.204 6.794-12.18 2.593-17.813l-78.89-101.496-3.12 2.323-35.057-46.995c-5.203-6.974 7.284-34.812 4.62-38.383L451.446 7.93c-.838-1.126-2.434-1.36-3.56-.52zm9.217 101.928c1.12 1.502.812 3.627-.69 4.748-1.5 1.118-3.627.81-4.747-.69l-43.268-58c-1.12-1.503-.812-3.63.69-4.75 1.5-1.12 3.627-.81 4.748.693l43.267 57.998zm11.978-4.703c-1.502 1.12-3.628.81-4.75-.69l-43.266-58c-1.12-1.503-.812-3.628.69-4.75 1.5-1.118 3.626-.81 4.748.694l43.267 57.997c1.12 1.503.81 3.627-.69 4.748zm146.754 183.48c-2.004 1.495-4.836 1.085-6.333-.92-1.493-2.003-1.08-4.837.924-6.33 2-1.495 4.836-1.08 6.33.92s1.08 4.837-.92 6.33zm-61.194-82.03c-2.004 1.495-4.838 1.085-6.33-.92-1.494-2.002-1.08-4.837.92-6.33 2.003-1.495 4.836-1.08 6.33.92 1.494 2.003 1.08 4.837-.92 6.33zM482.46 90.42c1.12 1.502.81 3.627-.69 4.747-1.502 1.122-3.627.814-4.748-.69l-43.268-58c-1.12-1.5-.81-3.626.69-4.748 1.5-1.12 3.628-.81 4.747.69l43.27 58zm12.645-9.433c1.122 1.5.813 3.625-.688 4.748-1.504 1.12-3.628.81-4.75-.693l-43.266-57.997c-1.12-1.504-.81-3.628.69-4.75s3.627-.81 4.747.694l43.268 57.997z"/><path opacity=".4" fill="#F9F6F2" d="M1 100.173h441v1H1zM1 232.173h1021v1H1z"/><path opacity=".4" stroke="#F9F6F2" stroke-width="3" stroke-miterlimit="10" fill="none" d="M630 89.673h392M512 89.673h33"/><path opacity=".4" fill="#F9F6F2" d="M1 88.173h433v3H1zM1 245.173h1021v3H1z"/><path fill="#F9F6F2" d="M650.267 50.72c.31-5.14-.174-10.354-1.576-15.348-1.4-4.984-3.73-9.75-6.98-13.842-.524-.662-1.078-1.3-1.647-1.927 0-2-.236-4.087-1.328-6.14-.355-.63-.768-1.203-1.365-1.76-.512-.485-1.18-.922-1.86-1.212-1.384-.59-2.828-.687-4.133-.567-1.31.128-2.534.43-3.697.828-4.114-1.775-8.542-2.802-12.993-3.043-10.406-.598-20.71 2.808-29.16 8.58-4.242 2.886-8.06 6.377-11.344 10.303-3.314 3.93-5.97 8.294-8.37 12.727-4.77 8.897-8.652 18.152-12.4 27.438-7.425 18.598-14.06 37.453-21.34 56.045-3.643 9.29-7.42 18.533-11.628 27.562-2.108 4.513-4.325 8.975-6.742 13.316-1.207 2.172-2.47 4.31-3.8 6.402-.502.785-1.022 1.556-1.545 2.326-.582-.553-1.488-.627-1.833.006-7.174 13.203-39.964 51.432-58.694 77.635-4.694 6.566-10.154 15.842-11.815 19.512-3.48 7.68-12.553 21.85-3.997 27.962 8.557 6.117 20.27-8.674 24.73-12.967 2.832-2.725 10.132-10.445 15.075-17.36 18.627-26.058 43.88-69.77 54.46-80.657.676-.695.137-1.642-.777-1.98 1.138-1.488 2.306-2.954 3.526-4.38 6.49-7.536 13.76-14.397 21.17-21.066 14.88-13.3 30.518-25.747 45.932-38.483 7.71-6.37 15.387-12.79 22.84-19.5 3.725-3.353 7.392-6.785 10.927-10.373 3.524-3.59 6.955-7.33 9.96-11.454l.006-.01c5.97-8.306 9.78-18.27 10.4-28.573zM510.33 177.905c.18-.465.41-.815.754-1.29l.98-1.393c1.293-1.865 2.53-3.766 3.73-5.685 2.397-3.844 4.65-7.77 6.822-11.73 4.344-7.93 8.377-16.01 12.307-24.136 7.855-16.253 15.25-32.707 23.002-48.97 3.884-8.124 7.842-16.21 12.14-24.092 4.323-7.86 8.908-15.572 15.09-21.92 6.11-6.342 13.447-11.705 21.674-14.58.762-.26 1.535-.49 2.313-.7-5.61 5.236-10.676 10.997-15.312 17.074-5.59 7.388-10.38 15.25-15.103 23.117-4.698 7.885-9.23 15.854-13.726 23.843-8.985 15.978-17.787 32.044-26.872 47.942-4.566 7.938-9.19 15.84-13.992 23.63-2.402 3.89-4.85 7.756-7.375 11.565-1.262 1.902-2.545 3.795-3.856 5.658-.764 1.02-1.615 2.264-2.084 3.66-.263-.344-.506-.69-.727-1.038.044-.325.112-.648.236-.955zm117.186-163.77c.247.117.493.228.736.353 1.27.662 2.493 1.406 3.677 2.22-.948-.143-1.162.108-1.423.183-.86.448-1.203.82-1.676 1.218-.432.396-.832.79-1.217 1.187-.637.663-1.246 1.337-1.85 2.013-1.875-.91-3.884-1.504-5.91-1.784-.44-.062-.877-.093-1.315-.13 2.288-1.68 4.652-3.224 7.14-4.452.602-.294 1.22-.562 1.838-.807zm3.784 25.862c-3.642 8.267-8.23 16.15-13.455 23.554-5.268 7.4-11.09 14.46-16.958 21.472-5.887 7-11.892 13.91-17.923 20.803-12.06 13.787-24.256 27.466-36.213 41.365-5.957 6.966-11.912 13.938-17.67 21.082-2.88 3.574-5.71 7.188-8.443 10.882l-2.026 2.788-.502.668c-.175.197-.324.39-.514.574-.36.38-.77.697-1.195.97-.054.036-.114.056-.167.088-.468-.206-.926-.438-1.37-.696.23-.278.458-.555.688-.838 10.094-13.86 20.188-27.635 30.536-41.272 20.565-27.35 41.47-54.427 61.743-82.046 5.01-6.955 9.937-13.972 14.655-21.145 2.255-3.464 4.47-6.957 6.588-10.54.25.285.5.565.73.872 1.562 2.04 2.635 4.443 3.315 7-.577 1.483-1.177 2.96-1.818 4.42zm-118.957 139.85c.396-.968 1.06-1.816 1.735-2.775 1.33-1.88 2.624-3.772 3.903-5.68 2.552-3.817 5.022-7.684 7.447-11.58 4.843-7.788 9.508-15.683 14.108-23.61 9.233-15.837 18.206-31.818 27.335-47.694 4.568-7.937 9.172-15.852 13.927-23.662 4.777-7.787 9.62-15.558 15.16-22.734 5.565-7.156 11.756-13.873 18.667-19.672 1.608-.12 3.213-.084 4.79.146 1.463.197 2.875.604 4.208 1.177-1.51 1.788-2.97 3.6-4.426 5.423-2.668 3.367-5.27 6.78-7.84 10.214-5.128 6.87-10.1 13.853-14.98 20.892-19.474 28.16-38.406 56.66-57.72 84.904l-14.575 21.122-7.36 10.5c-1.22 1.753-2.522 3.454-3.645 5.33-.02.028-.035.06-.053.09-.377-.32-.738-.665-1.078-1.02.077-.463.212-.927.4-1.37zM626.57 25.68c-2.154 3.646-4.446 7.242-6.776 10.81-4.646 7.145-9.452 14.2-14.385 21.17-9.856 13.956-19.99 27.744-30.087 41.554l-30.36 41.388-15.17 20.706-15.057 20.763c-.243.306-.494.616-.75.92-.02-.015-.044-.026-.064-.044-.027-.018-.053-.04-.078-.058.04-.068.075-.14.116-.212 1.083-1.79 2.39-3.488 3.624-5.242l7.42-10.474 14.68-21.056c19.56-28.08 38.925-56.303 58.702-84.2 4.957-6.966 10.007-13.85 15.203-20.62 2.597-3.385 5.228-6.742 7.917-10.042 1.594-1.94 3.205-3.88 4.854-5.76.105.07.207.145.31.22-.036.058-.068.117-.1.178zM523.942 179.44c-.7.89-1.385 1.79-2.06 2.702l-1.004 1.375c-.354.49-.612.892-.975 1.213-.18.18-.377.332-.585.465-.476-.088-.962-.205-1.452-.355.262-.205.51-.424.736-.66.223-.213.432-.473.634-.703l.532-.703 2.022-2.762c2.73-3.664 5.56-7.253 8.44-10.807 5.77-7.097 11.71-14.062 17.762-20.934 12.087-13.76 24.433-27.29 36.674-40.935 6.118-6.823 12.214-13.672 18.203-20.623 5.978-6.965 11.915-13.982 17.364-21.446 5.306-7.39 9.978-15.244 13.76-23.558.192 3.852-.205 7.766-1.035 11.588-1.9 8.568-5.752 16.717-10.86 23.906-5.174 7.2-11.345 13.776-17.55 20.263-6.245 6.47-12.675 12.78-19.138 19.058-12.93 12.558-26.05 24.942-38.734 37.795-6.332 6.434-12.57 12.974-18.438 19.865-1.46 1.725-2.9 3.473-4.297 5.256zm108.38-152.796c-.486-.64-1.03-1.234-1.603-1.807.6-1.075 1.18-2.17 1.718-3.326.236-.524.465-1.042.67-1.677.09-.342.22-.62.22-1.323.003-.072-.012-.214-.04-.343-.007-.067-.052-.314-.245-.637-.018-.03-.027-.043-.045-.066 1.365 1.015 2.657 2.13 3.86 3.338-.002.013-.002.027-.002.043-.124 2.14-.53 4.32-1.062 6.477-.298 1.187-.64 2.365-1.012 3.537-.653-1.476-1.456-2.896-2.458-4.216zm1.918-13.243c.37.166.672.364.993.666.24.226.52.582.72.95.188.334.34.706.463 1.098-1.362-1.134-2.813-2.157-4.325-3.077.794-.016 1.54.093 2.15.364zM522.047 151.12c4.3-9.057 8.153-18.302 11.87-27.59 7.425-18.58 14.198-37.396 21.728-55.87 3.793-9.217 7.728-18.398 12.466-27.088 2.382-4.333 4.992-8.53 8.154-12.225 3.154-3.717 6.808-7.01 10.848-9.715 8.042-5.417 17.77-8.517 27.39-7.89 3.117.194 6.2.803 9.145 1.8-3.668 1.945-6.95 4.36-10.07 6.94-2.656.294-5.255.94-7.728 1.804-8.82 3.172-16.39 8.848-22.704 15.492-3.154 3.34-5.987 6.994-8.466 10.834-2.483 3.835-4.72 7.785-6.866 11.775-4.276 7.987-8.184 16.136-12.014 24.308-7.64 16.356-14.904 32.86-22.614 49.143-3.857 8.136-7.817 16.228-12.074 24.15-2.13 3.958-4.34 7.872-6.686 11.697-1.174 1.915-2.382 3.802-3.645 5.652l-.954 1.382c-.242.33-.508.765-.724 1.213-.323-.823-.48-1.58-.42-2.186l.465-.657c.73-1.035 1.43-2.078 2.113-3.137 1.366-2.117 2.66-4.272 3.896-6.457 2.473-4.37 4.737-8.85 6.89-13.377zM437.528 289.81c-2.126-1.52-2.17-5.1-.1-7.994 2.07-2.893 5.468-4.01 7.593-2.49 2.127 1.52 2.17 5.096.102 7.992-2.07 2.894-5.47 4.012-7.594 2.492zM617.248 99.24c-7.334 6.743-14.92 13.23-22.55 19.674-15.254 12.893-30.778 25.517-45.57 39.014-7.366 6.773-14.602 13.736-21.08 21.42-1.444 1.73-2.836 3.508-4.165 5.334-.1.047-.2.076-.297.145-.548.38-1.423.56-2.465.55.332-.36.618-.743.855-1.063l1.006-1.347c.678-.894 1.368-1.774 2.07-2.65 1.4-1.75 2.85-3.467 4.32-5.163 5.902-6.776 12.192-13.225 18.576-19.568 12.8-12.676 26.048-24.906 39.13-37.33 6.54-6.213 13.055-12.463 19.41-18.9 6.32-6.465 12.61-13.004 18.054-20.395l.005-.005c5.346-7.48 9.396-15.945 11.434-24.99.994-4.522 1.486-9.202 1.08-13.904-.12-1.396-.34-2.806-.648-4.2.955-2.533 1.803-5.112 2.472-7.768.323-1.316.6-2.656.81-4.016 5.69 7.412 8.128 17.084 7.566 26.47-.542 9.683-4.098 19.142-9.743 27.066-2.837 3.99-6.14 7.673-9.567 11.247-3.447 3.565-7.04 7.005-10.702 10.38zM447.885.505L394.66 40.21c-1.127.84-1.357 2.436-.518 3.56l66.98 89.788c2.155 2.89 33.477.17 38.17 6.462l35.06 46.995-3.228 2.407 74.813 104.54c4.202 5.635 12.18 6.793 17.813 2.59l4.53-3.38c5.638-4.204 6.794-12.18 2.593-17.813l-78.89-101.497-3.12 2.324-35.057-46.995c-5.203-6.974 7.284-34.812 4.62-38.383l-66.98-89.787c-.838-1.125-2.434-1.358-3.56-.518zm9.217 101.928c1.12 1.502.812 3.627-.69 4.748-1.5 1.12-3.627.812-4.747-.69l-43.268-58c-1.12-1.502-.812-3.63.69-4.748 1.5-1.12 3.627-.81 4.748.692l43.267 58zm11.978-4.703c-1.502 1.12-3.628.81-4.75-.69l-43.266-58c-1.12-1.503-.812-3.628.69-4.75 1.5-1.118 3.626-.81 4.748.694l43.267 57.998c1.12 1.503.81 3.627-.69 4.748zm146.754 183.48c-2.004 1.494-4.836 1.084-6.333-.92-1.493-2.004-1.08-4.838.924-6.332 2-1.494 4.836-1.08 6.33.922s1.08 4.836-.92 6.33zm-61.194-82.03c-2.004 1.495-4.838 1.085-6.33-.92-1.494-2.002-1.08-4.837.92-6.33 2.003-1.495 4.836-1.08 6.33.92 1.494 2.003 1.08 4.837-.92 6.33zM482.46 83.516c1.12 1.502.81 3.627-.69 4.747-1.502 1.122-3.627.814-4.748-.69l-43.268-58c-1.12-1.5-.81-3.626.69-4.748 1.5-1.12 3.628-.81 4.747.69l43.27 58zm12.645-9.433c1.122 1.5.813 3.625-.688 4.748-1.504 1.12-3.628.81-4.75-.693L446.402 20.14c-1.12-1.504-.81-3.628.69-4.75s3.627-.81 4.747.694l43.268 57.998z"/><g fill="#88A5A4"><path d="M154.887 126.91c10.69 0 21.297 2.383 31.823 7.146v15.353c-10.525-5.346-20.884-8.02-31.077-8.02-6.34 0-11.976 1.266-16.906 3.792-4.93 2.528-8.754 6.164-11.467 10.907-2.714 4.745-4.07 10.038-4.07 15.88 0 8.867 2.95 16.005 8.856 21.412 5.904 5.407 13.684 8.11 23.338 8.11 2.65 0 5.19-.227 7.614-.683 2.424-.457 5.314-1.327 8.67-2.612V183.78H157.31v-13.114h31.14v35.8c-4.27 2.983-9.397 5.314-15.384 6.993-5.988 1.677-12.213 2.516-18.677 2.516-9.16 0-17.457-1.885-24.894-5.655-7.438-3.77-13.24-9.053-17.403-15.85-4.164-6.794-6.246-14.377-6.246-22.747 0-8.494 2.103-16.18 6.31-23.06 4.204-6.878 10.068-12.223 17.588-16.036 7.52-3.81 15.9-5.718 25.142-5.718zM245.042 128.028l36.84 86.83h-17.715l-9.012-21.134h-35.257l-8.39 21.133h-17.59l35-86.83h16.124zm-20.05 52.954h24.693l-13.027-34.37-11.665 34.37zM317.69 128.028c7.955 0 14.44 2.072 19.453 6.216 5.013 4.143 7.52 9.322 7.52 15.537 0 3.98-1.046 7.48-3.138 10.506-2.093 3.024-5.128 5.43-9.105 7.21v.746c6.05 1.367 10.762 4.07 14.14 8.11 3.377 4.04 5.066 8.774 5.066 14.202 0 4.807-1.233 9.105-3.698 12.896-2.466 3.792-5.884 6.64-10.255 8.547-4.372 1.906-9.52 2.86-15.445 2.86h-33.36v-86.83h28.82zm-4.476 36.05c4.433 0 7.934-1.058 10.504-3.17 2.57-2.113 3.854-5.056 3.854-8.826 0-3.357-1.18-6.02-3.543-7.987-2.363-1.968-5.47-2.952-9.324-2.952h-9.058v22.935h7.566zm3.915 37.664c5.675 0 9.964-1.066 12.865-3.2 2.9-2.134 4.35-5.272 4.35-9.417 0-3.688-1.44-6.598-4.32-8.732-2.88-2.133-6.743-3.2-11.59-3.2h-12.788v24.55h11.482zM408.738 128.028v13.114h-31.343v22.81h29.666v13.115h-29.665v24.675h32.214v13.115h-48.997v-86.83h48.125z"/></g><g fill="#88A5A4"><path d="M670.55 128.028v73.714h39.14v13.115h-55.923v-86.83h16.782zM737.8 128.028v50.53c0 5.18.776 9.303 2.33 12.37s4.092 5.593 7.613 7.58c3.52 1.99 7.624 2.985 12.307 2.985 5.138 0 9.5-.942 13.084-2.828 3.583-1.885 6.204-4.453 7.862-7.707 1.656-3.252 2.486-7.76 2.486-13.52v-49.41h16.78v51.586c0 11.686-3.5 20.666-10.503 26.944-7.004 6.277-16.907 9.416-29.71 9.416-8.04 0-15.01-1.43-20.915-4.288-5.905-2.86-10.41-6.992-13.52-12.4-3.107-5.407-4.66-11.756-4.66-19.05v-52.21h16.844zM890.2 128.028l-50.593 73.714h50.842v13.115h-79.683l50.53-73.715h-47.484v-13.114H890.2z"/></g><g fill="#F9F6F2"><path d="M154.887 120.91c10.69 0 21.297 2.383 31.823 7.146v15.353c-10.525-5.346-20.884-8.02-31.077-8.02-6.34 0-11.976 1.266-16.906 3.792-4.93 2.528-8.754 6.164-11.467 10.907-2.714 4.745-4.07 10.038-4.07 15.88 0 8.867 2.95 16.005 8.856 21.412 5.904 5.407 13.684 8.11 23.338 8.11 2.65 0 5.19-.227 7.614-.683 2.424-.457 5.314-1.327 8.67-2.612V177.78H157.31v-13.114h31.14v35.8c-4.27 2.983-9.397 5.314-15.384 6.993-5.988 1.677-12.213 2.516-18.677 2.516-9.16 0-17.457-1.885-24.894-5.655-7.438-3.77-13.24-9.053-17.403-15.85-4.164-6.794-6.246-14.377-6.246-22.747 0-8.494 2.103-16.18 6.31-23.06 4.204-6.878 10.068-12.223 17.588-16.036 7.52-3.81 15.9-5.718 25.142-5.718zM245.042 122.028l36.84 86.83h-17.715l-9.012-21.134h-35.257l-8.39 21.133h-17.59l35-86.83h16.124zm-20.05 52.954h24.693l-13.027-34.37-11.665 34.37zM317.69 122.028c7.955 0 14.44 2.072 19.453 6.216 5.013 4.143 7.52 9.322 7.52 15.537 0 3.98-1.046 7.48-3.138 10.506-2.093 3.024-5.128 5.43-9.105 7.21v.746c6.05 1.367 10.762 4.07 14.14 8.11 3.377 4.04 5.066 8.774 5.066 14.202 0 4.807-1.233 9.105-3.698 12.896-2.466 3.792-5.884 6.64-10.255 8.547-4.372 1.906-9.52 2.86-15.445 2.86h-33.36v-86.83h28.82zm-4.476 36.05c4.433 0 7.934-1.058 10.504-3.17 2.57-2.113 3.854-5.056 3.854-8.826 0-3.357-1.18-6.02-3.543-7.987-2.363-1.968-5.47-2.952-9.324-2.952h-9.058v22.935h7.566zm3.915 37.664c5.675 0 9.964-1.066 12.865-3.2 2.9-2.134 4.35-5.272 4.35-9.417 0-3.688-1.44-6.598-4.32-8.732-2.88-2.133-6.743-3.2-11.59-3.2h-12.788v24.55h11.482zM408.738 122.028v13.114h-31.343v22.81h29.666v13.115h-29.665v24.675h32.214v13.115h-48.997v-86.83h48.125z"/></g><g fill="#F9F6F2"><path d="M670.55 122.028v73.714h39.14v13.115h-55.923v-86.83h16.782zM737.8 122.028v50.53c0 5.18.776 9.303 2.33 12.37s4.092 5.593 7.613 7.58c3.52 1.99 7.624 2.985 12.307 2.985 5.138 0 9.5-.942 13.084-2.828 3.583-1.885 6.204-4.453 7.862-7.707 1.656-3.252 2.486-7.76 2.486-13.52v-49.41h16.78v51.586c0 11.686-3.5 20.666-10.503 26.944-7.004 6.277-16.907 9.416-29.71 9.416-8.04 0-15.01-1.43-20.915-4.288-5.905-2.86-10.41-6.992-13.52-12.4-3.107-5.407-4.66-11.756-4.66-19.05v-52.21h16.844zM890.2 122.028l-50.593 73.714h50.842v13.115h-79.683l50.53-73.715h-47.484v-13.114H890.2z"/></g></svg>