<svg xmlns="http://www.w3.org/2000/svg" width="618.367" height="142" viewBox="0 0 618.367 142"><path fill="#88A5A4" d="M618.367 23h-66.183V7h-486v16H0l21.83 61.938L0 142h100.184v-16h418v16h100.183L588.58 84.938z"/><path fill="#9A9AA0" d="M100.184 135V16H0l21.83 61.938L0 135zM618.367 16H518.184v119h100.183L588.58 77.938z"/><path fill="#AEAEB5" d="M66.184 0h485v120h-485z"/><path fill="#C8C8CC" d="M542.184 110h-466V9h466v101zm-465-1h464V10h-464v99z"/><path fill="#7B7B84" d="M100.184 135l-34-16h34zM518.184 135l34-16h-34z"/><g fill="#F9F6F2"><path d="M137.715 21.264c6.562 0 11.988 3.444 16.278 10.33 4.29 6.89 6.434 15.63 6.434 26.226 0 10.87-2.146 19.705-6.434 26.507-4.29 6.802-9.853 10.202-16.688 10.202-6.94 0-12.51-3.334-16.714-9.998-4.203-6.666-6.305-15.5-6.305-26.507 0-10.87 2.17-19.713 6.51-26.532 4.342-6.82 9.98-10.23 16.92-10.23zm.103 9.742h-.513c-3.93 0-7.05 2.418-9.356 7.254-2.31 4.837-3.462 11.39-3.462 19.662 0 8.478 1.128 15.125 3.384 19.943 2.256 4.82 5.366 7.23 9.33 7.23 3.965 0 7.093-2.41 9.383-7.23 2.29-4.818 3.435-11.363 3.435-19.636 0-8.307-1.103-14.92-3.307-19.842-2.205-4.92-5.17-7.382-8.895-7.382zM172.076 41.398c0-5.6 2.102-10.357 6.306-14.268 4.204-3.91 9.348-5.867 15.432-5.867 5.98 0 11.03 1.94 15.15 5.815 4.118 3.877 6.178 8.65 6.178 14.32 0 6.387-2.974 11.664-8.92 15.83 6.63 3.83 9.945 9.475 9.945 16.93 0 5.918-2.153 10.81-6.46 14.674-4.307 3.865-9.74 5.798-16.304 5.798-6.495 0-11.946-1.975-16.355-5.926-4.41-3.95-6.614-8.833-6.614-14.647 0-7.285 3.384-12.895 10.15-16.828-3.04-2.46-5.22-4.91-6.536-7.353-1.314-2.44-1.972-5.268-1.972-8.48zm33.736 33.186V73.56c0-3.282-1.17-5.956-3.512-8.024-2.342-2.067-5.375-3.102-9.1-3.102-3.66 0-6.64 1.043-8.947 3.127-2.308 2.087-3.46 4.787-3.46 8.103s1.178 6.016 3.537 8.1c2.358 2.086 5.417 3.128 9.177 3.128 3.59 0 6.537-.955 8.844-2.87 2.308-1.916 3.462-4.393 3.462-7.436zm-.872-32.863c0-3.108-1.07-5.672-3.205-7.69-2.136-2.016-4.845-3.023-8.126-3.023-3.317 0-6.034.99-8.153 2.973-2.12 1.983-3.18 4.53-3.18 7.64 0 2.974 1.12 5.52 3.36 7.64 2.237 2.12 4.93 3.178 8.074 3.178 3.11 0 5.76-1.05 7.948-3.152 2.188-2.105 3.282-4.625 3.282-7.565zM288.745 83.916h27.265v9.895h-45.322v-.717l4.307-5.075c6.733-8.34 12.09-15.415 16.073-21.227 3.98-5.81 6.58-10.2 7.793-13.175 1.213-2.974 1.82-5.913 1.82-8.818 0-4.032-1.145-7.27-3.434-9.716-2.29-2.442-5.332-3.664-9.126-3.664-2.87 0-5.7.846-8.485 2.537-2.786 1.692-5.29 4.076-7.51 7.152V28.083c5.57-4.545 11.312-6.82 17.226-6.82 6.256 0 11.408 2.087 15.46 6.257 4.05 4.17 6.074 9.47 6.074 15.896 0 2.872-.504 5.94-1.512 9.204-1.007 3.265-2.793 7.025-5.355 11.28-2.562 4.256-6.92 10.06-13.068 17.408l-2.205 2.608zM343.094 83.916h27.265v9.895h-45.323v-.717l4.307-5.075c6.733-8.34 12.09-15.415 16.073-21.227 3.98-5.81 6.58-10.2 7.793-13.175 1.213-2.974 1.82-5.913 1.82-8.818 0-4.032-1.146-7.27-3.436-9.716-2.29-2.442-5.332-3.664-9.126-3.664-2.87 0-5.7.846-8.485 2.537-2.786 1.692-5.29 4.076-7.51 7.152V28.083c5.57-4.545 11.312-6.82 17.226-6.82 6.254 0 11.406 2.087 15.457 6.257 4.05 4.17 6.075 9.47 6.075 15.896 0 2.872-.504 5.94-1.512 9.204-1.008 3.265-2.793 7.025-5.356 11.28-2.562 4.256-6.92 10.06-13.068 17.408l-2.202 2.608zM429.595 22.188h10.254V93.81h-10.255V22.19zM465.802 22.188h31.787v9.125H475.13v18.1c.72-.07 1.453-.104 2.205-.104 6.938 0 12.646 2.11 17.124 6.33 4.48 4.223 6.717 9.597 6.717 16.125 0 6.734-2.213 12.21-6.64 16.432-4.426 4.222-10.16 6.332-17.2 6.332-5.812 0-11.45-1.402-16.92-4.205V79.763c5.16 3.35 10.203 5.024 15.125 5.024 4.307 0 7.922-1.256 10.844-3.77 2.923-2.51 4.384-5.595 4.384-9.253 0-3.794-1.59-6.964-4.77-9.51-3.177-2.547-7.143-3.82-11.894-3.82-4.067 0-6.836.342-8.305 1.025V22.187z"/></g><circle fill="#F9F6F2" cx="244.076" cy="59.521" r="6.5"/><circle fill="#F9F6F2" cx="397.594" cy="59.521" r="6.5"/></svg>