<svg xmlns="http://www.w3.org/2000/svg" width="1024" height="347" viewBox="0 -20.007 1024 347" enable-background="new 0 -20.007 1024 347"><path fill="#88A5A4" d="M650.267 38.712c.312-5.14-.174-10.354-1.575-15.348-1.402-4.984-3.73-9.75-6.98-13.842-.525-.662-1.08-1.3-1.647-1.927 0-2-.236-4.087-1.328-6.14-.355-.63-.77-1.203-1.365-1.76-.512-.485-1.18-.922-1.86-1.212-1.384-.59-2.828-.688-4.133-.568-1.312.128-2.535.43-3.698.828C623.57-3.033 619.14-4.06 614.69-4.3c-10.406-.6-20.71 2.807-29.16 8.58-4.242 2.885-8.06 6.376-11.344 10.302-3.314 3.93-5.97 8.294-8.37 12.727-4.77 8.896-8.652 18.15-12.4 27.437-7.425 18.598-14.06 37.453-21.34 56.045-3.644 9.29-7.42 18.533-11.628 27.562-2.108 4.514-4.325 8.975-6.742 13.316-1.207 2.172-2.47 4.31-3.8 6.402-.502.785-1.022 1.555-1.545 2.326-.58-.554-1.487-.628-1.832.006-7.174 13.203-39.965 51.432-58.694 77.635-4.695 6.564-10.155 15.84-11.816 19.51-3.48 7.683-12.553 21.85-3.997 27.964 8.56 6.117 20.27-8.674 24.732-12.967 2.83-2.725 10.13-10.445 15.074-17.36 18.627-26.058 43.88-69.77 54.46-80.657.676-.695.137-1.642-.777-1.98 1.138-1.487 2.306-2.953 3.525-4.38 6.49-7.535 13.76-14.396 21.17-21.065 14.88-13.3 30.518-25.747 45.932-38.483 7.71-6.37 15.388-12.79 22.84-19.498 3.726-3.354 7.393-6.786 10.928-10.374 3.522-3.59 6.954-7.33 9.96-11.454l.005-.01c5.967-8.307 9.776-18.27 10.397-28.574zM510.33 165.897c.18-.465.41-.814.754-1.29l.98-1.393c1.293-1.865 2.53-3.767 3.73-5.685 2.396-3.846 4.65-7.77 6.82-11.73 4.345-7.933 8.378-16.012 12.308-24.137 7.855-16.254 15.25-32.708 23.002-48.97 3.884-8.125 7.842-16.212 12.142-24.093 4.32-7.86 8.906-15.572 15.088-21.92 6.11-6.342 13.447-11.705 21.675-14.58.762-.26 1.535-.49 2.312-.7-5.61 5.236-10.676 10.997-15.312 17.074-5.59 7.388-10.38 15.25-15.104 23.117-4.697 7.887-9.23 15.856-13.726 23.845-8.986 15.978-17.788 32.044-26.873 47.942-4.565 7.938-9.19 15.84-13.992 23.63-2.4 3.89-4.85 7.756-7.375 11.565-1.263 1.9-2.546 3.795-3.856 5.657-.765 1.02-1.615 2.264-2.084 3.658-.264-.343-.506-.688-.728-1.037.045-.322.113-.646.237-.953zM627.515 2.127c.247.117.493.228.736.353 1.27.662 2.493 1.406 3.677 2.22-.947-.143-1.162.108-1.423.183-.86.447-1.203.82-1.676 1.217-.432.396-.832.79-1.217 1.187-.638.663-1.246 1.337-1.85 2.013-1.876-.91-3.885-1.504-5.91-1.784-.44-.062-.878-.093-1.315-.13 2.288-1.68 4.652-3.224 7.14-4.452.602-.294 1.218-.562 1.838-.807zM631.3 27.99c-3.642 8.266-8.23 16.15-13.455 23.553-5.268 7.4-11.09 14.46-16.958 21.47-5.887 7-11.892 13.912-17.923 20.804-12.06 13.787-24.256 27.466-36.213 41.365-5.957 6.967-11.912 13.938-17.67 21.082-2.88 3.574-5.71 7.188-8.443 10.882l-2.025 2.788-.503.668c-.177.197-.325.39-.516.574-.36.38-.77.697-1.194.97-.054.036-.113.056-.166.09-.47-.208-.927-.44-1.37-.698.23-.277.458-.555.688-.838 10.093-13.86 20.188-27.635 30.535-41.27 20.565-27.352 41.47-54.428 61.743-82.047 5.012-6.955 9.938-13.972 14.656-21.145 2.255-3.464 4.47-6.957 6.588-10.54.25.285.5.565.73.872 1.562 2.04 2.635 4.443 3.315 7-.58 1.482-1.18 2.96-1.82 4.42zM512.343 167.84c.396-.97 1.06-1.816 1.735-2.775 1.33-1.88 2.624-3.773 3.903-5.68 2.552-3.818 5.022-7.686 7.446-11.58 4.843-7.79 9.508-15.684 14.108-23.612 9.232-15.836 18.206-31.817 27.335-47.693 4.566-7.937 9.17-15.852 13.926-23.662 4.777-7.787 9.62-15.558 15.16-22.734 5.565-7.156 11.756-13.873 18.667-19.672 1.608-.12 3.213-.084 4.79.146 1.463.197 2.875.604 4.208 1.177-1.51 1.788-2.968 3.6-4.425 5.423-2.668 3.367-5.27 6.78-7.84 10.214-5.13 6.87-10.102 13.853-14.98 20.892-19.474 28.16-38.406 56.66-57.72 84.904L524.08 154.31l-7.362 10.5c-1.218 1.753-2.52 3.454-3.644 5.33-.02.028-.035.06-.053.09-.377-.32-.737-.665-1.077-1.02.078-.463.213-.926.4-1.37zM626.57 13.67c-2.154 3.646-4.446 7.242-6.776 10.81-4.646 7.145-9.452 14.2-14.385 21.17-9.856 13.956-19.99 27.744-30.087 41.554l-30.36 41.388-15.17 20.706-15.057 20.763c-.243.305-.494.615-.75.918-.02-.013-.045-.024-.064-.042-.027-.018-.053-.04-.078-.058.04-.068.075-.142.116-.212 1.083-1.79 2.39-3.488 3.624-5.242l7.42-10.475 14.68-21.055c19.56-28.08 38.926-56.303 58.702-84.2 4.957-6.966 10.007-13.85 15.203-20.62 2.597-3.385 5.228-6.742 7.917-10.042 1.594-1.94 3.205-3.88 4.854-5.76.105.07.207.145.31.22-.036.06-.068.118-.1.18zm-102.627 153.76c-.7.89-1.386 1.79-2.062 2.702l-1.002 1.375c-.353.488-.61.89-.974 1.212-.18.18-.377.332-.585.465-.478-.088-.963-.204-1.453-.354.262-.205.51-.424.735-.66.224-.213.433-.473.635-.703l.53-.703 2.023-2.762c2.73-3.664 5.56-7.254 8.44-10.807 5.77-7.098 11.71-14.062 17.762-20.935 12.087-13.76 24.433-27.29 36.674-40.936 6.118-6.823 12.214-13.672 18.203-20.623 5.976-6.965 11.913-13.982 17.362-21.446 5.306-7.39 9.978-15.244 13.76-23.558.19 3.852-.205 7.766-1.035 11.588-1.9 8.568-5.75 16.717-10.86 23.906-5.173 7.2-11.344 13.776-17.55 20.263-6.244 6.47-12.674 12.78-19.137 19.058-12.93 12.558-26.05 24.942-38.734 37.795-6.332 6.435-12.57 12.974-18.438 19.865-1.46 1.726-2.898 3.474-4.295 5.256zm108.38-152.796c-.486-.64-1.03-1.234-1.603-1.807.6-1.076 1.18-2.17 1.718-3.327.236-.525.466-1.043.67-1.678.092-.342.222-.62.222-1.323.002-.072-.013-.214-.04-.343-.008-.068-.053-.315-.246-.638-.018-.03-.027-.043-.045-.066 1.364 1.015 2.656 2.13 3.86 3.338-.003.013-.003.027-.003.043-.124 2.14-.53 4.32-1.062 6.478-.298 1.187-.64 2.365-1.012 3.537-.654-1.476-1.457-2.896-2.46-4.216zm1.918-13.243c.37.165.672.363.993.665.24.226.52.582.72.95.188.334.34.706.463 1.098-1.362-1.134-2.812-2.157-4.325-3.077.794-.017 1.54.092 2.15.363zm-112.194 137.72c4.3-9.058 8.153-18.303 11.87-27.59 7.425-18.58 14.198-37.396 21.728-55.87 3.793-9.217 7.728-18.398 12.466-27.088 2.382-4.333 4.99-8.53 8.153-12.225 3.154-3.717 6.81-7.01 10.85-9.715 8.04-5.417 17.768-8.517 27.39-7.89 3.116.194 6.2.803 9.145 1.8-3.668 1.945-6.95 4.36-10.07 6.94-2.656.294-5.255.94-7.728 1.804-8.82 3.17-16.39 8.847-22.703 15.49-3.154 3.34-5.987 6.995-8.467 10.835-2.482 3.835-4.72 7.785-6.865 11.775-4.276 7.987-8.185 16.136-12.015 24.308-7.64 16.356-14.903 32.86-22.613 49.143-3.857 8.137-7.817 16.23-12.074 24.15-2.13 3.96-4.34 7.873-6.687 11.698-1.174 1.915-2.382 3.802-3.645 5.65l-.954 1.384c-.242.332-.508.766-.724 1.214-.323-.823-.48-1.58-.42-2.187l.465-.657c.73-1.035 1.43-2.078 2.112-3.137 1.365-2.117 2.66-4.272 3.895-6.457 2.474-4.372 4.738-8.852 6.89-13.378zm-84.518 138.69c-2.126-1.52-2.17-5.1-.1-7.993 2.068-2.894 5.468-4.01 7.593-2.49s2.17 5.097.102 7.992c-2.07 2.894-5.47 4.013-7.594 2.492zm179.72-190.57c-7.334 6.742-14.92 13.228-22.55 19.673-15.254 12.893-30.778 25.517-45.57 39.014-7.366 6.773-14.602 13.736-21.08 21.42-1.444 1.73-2.836 3.508-4.165 5.334-.1.047-.2.076-.297.145-.548.38-1.423.56-2.465.548.332-.358.618-.742.855-1.062l1.006-1.347c.68-.896 1.368-1.775 2.07-2.65 1.4-1.75 2.85-3.468 4.32-5.164 5.9-6.776 12.19-13.225 18.576-19.567 12.8-12.677 26.048-24.907 39.13-37.332 6.54-6.213 13.055-12.463 19.41-18.9 6.318-6.465 12.608-13.004 18.054-20.395l.005-.006c5.346-7.48 9.396-15.945 11.434-24.99.994-4.522 1.486-9.202 1.08-13.904-.12-1.397-.34-2.807-.647-4.202.955-2.53 1.803-5.11 2.472-7.766.323-1.316.6-2.656.812-4.016 5.688 7.412 8.127 17.084 7.564 26.47-.54 9.683-4.097 19.142-9.742 27.066-2.837 3.99-6.14 7.673-9.566 11.247-3.45 3.567-7.042 7.007-10.704 10.382z"/><path opacity=".4" stroke="#F9F6F2" stroke-miterlimit="10" enable-background="new" fill="none" d="M619 80.665h403M510 80.665h32"/><path fill="#88A5A4" d="M447.885-12.598L394.66 27.108c-1.127.84-1.357 2.436-.518 3.56l66.98 89.788c2.155 2.89 33.477.17 38.17 6.462l35.06 46.995-3.228 2.408 74.812 104.54c4.202 5.635 12.18 6.793 17.813 2.59l4.53-3.38c5.637-4.204 6.793-12.18 2.592-17.812l-78.89-101.496-3.12 2.323-35.058-46.994c-5.202-6.973 7.284-34.81 4.62-38.382l-66.98-89.786c-.836-1.126-2.432-1.36-3.56-.52zm9.217 101.928c1.12 1.502.812 3.627-.688 4.748-1.5 1.118-3.628.81-4.748-.69l-43.27-58c-1.12-1.503-.81-3.63.69-4.75 1.502-1.12 3.628-.81 4.75.693l43.266 58zm11.978-4.703c-1.502 1.12-3.628.81-4.75-.69l-43.266-58c-1.12-1.503-.812-3.628.69-4.75 1.5-1.118 3.625-.81 4.747.694l43.27 58c1.12 1.502.81 3.626-.69 4.747zm146.754 183.48c-2.004 1.495-4.836 1.085-6.333-.92-1.493-2.003-1.08-4.837.924-6.33 2-1.495 4.836-1.08 6.33.92s1.08 4.837-.92 6.33zM554.64 186.08c-2.004 1.493-4.838 1.083-6.33-.92-1.493-2.005-1.08-4.84.92-6.33 2.004-1.497 4.837-1.083 6.33.92 1.494 2 1.08 4.834-.92 6.33zM482.46 70.41c1.12 1.502.81 3.627-.69 4.747-1.502 1.12-3.627.813-4.748-.69l-43.268-58c-1.12-1.5-.81-3.627.69-4.75 1.5-1.118 3.628-.808 4.747.692l43.27 58zm12.645-9.433c1.12 1.5.812 3.624-.688 4.747-1.504 1.12-3.628.81-4.75-.693L446.402 7.037c-1.12-1.504-.81-3.628.69-4.75s3.626-.81 4.746.694l43.27 58z"/><path opacity=".4" fill="#F9F6F2" enable-background="new" d="M1 80.165h441v1H1zM1 212.165h1021v1H1z"/><path opacity=".4" stroke="#F9F6F2" stroke-width="3" stroke-miterlimit="10" enable-background="new" fill="none" d="M630 69.665h392M512 69.665h33"/><path opacity=".4" fill="#F9F6F2" enable-background="new" d="M1 68.165h433v3H1zM1 225.165h1021v3H1z"/><path fill="#F9F6F2" d="M650.267 30.712c.312-5.14-.174-10.354-1.575-15.348-1.402-4.984-3.73-9.75-6.98-13.842-.525-.662-1.08-1.3-1.647-1.927 0-2-.236-4.087-1.328-6.14-.355-.63-.77-1.203-1.365-1.76-.512-.485-1.18-.922-1.86-1.212-1.384-.59-2.828-.688-4.133-.568-1.312.128-2.535.43-3.698.828-4.113-1.776-8.542-2.803-12.992-3.044-10.406-.6-20.71 2.807-29.16 8.58-4.242 2.885-8.06 6.376-11.344 10.302-3.314 3.93-5.97 8.294-8.37 12.727-4.77 8.896-8.652 18.15-12.4 27.437-7.425 18.598-14.06 37.453-21.34 56.045-3.644 9.29-7.42 18.533-11.628 27.562-2.108 4.514-4.325 8.975-6.742 13.316-1.207 2.172-2.47 4.31-3.8 6.402-.502.785-1.022 1.555-1.545 2.326-.58-.554-1.487-.628-1.832.006-7.174 13.203-39.965 51.432-58.694 77.635-4.695 6.564-10.155 15.84-11.816 19.51-3.48 7.683-12.553 21.85-3.997 27.964 8.56 6.117 20.27-8.674 24.732-12.967 2.83-2.725 10.13-10.445 15.074-17.36 18.627-26.058 43.88-69.77 54.46-80.657.676-.695.137-1.642-.777-1.98 1.138-1.487 2.306-2.953 3.525-4.38 6.49-7.535 13.76-14.396 21.17-21.065 14.88-13.3 30.518-25.747 45.932-38.483 7.71-6.37 15.388-12.79 22.84-19.498 3.726-3.354 7.393-6.786 10.928-10.374 3.522-3.59 6.954-7.33 9.96-11.454l.005-.01c5.967-8.307 9.776-18.27 10.397-28.574zM510.33 157.897c.18-.465.41-.814.754-1.29l.98-1.393c1.293-1.865 2.53-3.767 3.73-5.685 2.396-3.846 4.65-7.77 6.82-11.73 4.345-7.932 8.378-16.012 12.308-24.137 7.855-16.254 15.25-32.708 23.002-48.97 3.884-8.125 7.842-16.212 12.142-24.093 4.32-7.86 8.906-15.572 15.088-21.92 6.11-6.342 13.447-11.705 21.675-14.58.762-.26 1.535-.49 2.312-.7-5.61 5.236-10.676 10.997-15.312 17.074-5.59 7.388-10.38 15.25-15.104 23.117-4.697 7.887-9.23 15.856-13.726 23.845-8.986 15.978-17.788 32.044-26.873 47.942-4.565 7.938-9.19 15.84-13.992 23.63-2.4 3.89-4.85 7.756-7.375 11.565-1.263 1.9-2.546 3.795-3.856 5.658-.765 1.02-1.615 2.264-2.084 3.658-.264-.343-.506-.688-.728-1.037.045-.322.113-.646.237-.953zM627.515-5.873c.247.117.493.228.736.353 1.27.662 2.493 1.406 3.677 2.22-.947-.143-1.162.108-1.423.183-.86.447-1.203.82-1.676 1.217-.432.396-.832.79-1.217 1.187-.638.663-1.246 1.337-1.85 2.013-1.876-.91-3.885-1.504-5.91-1.784-.44-.062-.878-.093-1.315-.13 2.288-1.68 4.652-3.224 7.14-4.452.602-.294 1.218-.562 1.838-.807zM631.3 19.99c-3.642 8.266-8.23 16.15-13.455 23.553-5.268 7.4-11.09 14.46-16.958 21.47-5.887 7-11.892 13.912-17.923 20.804-12.06 13.787-24.256 27.466-36.213 41.365-5.957 6.967-11.912 13.938-17.67 21.082-2.88 3.574-5.71 7.188-8.443 10.882l-2.025 2.788-.503.668c-.177.197-.325.39-.516.574-.36.38-.77.697-1.194.97-.054.036-.113.056-.166.09-.47-.208-.927-.44-1.37-.698.23-.277.458-.555.688-.838 10.093-13.86 20.188-27.635 30.535-41.27C566.652 94.077 587.557 67 607.83 39.382c5.012-6.955 9.938-13.972 14.656-21.145 2.255-3.464 4.47-6.957 6.588-10.54.25.285.5.565.73.872 1.562 2.04 2.635 4.443 3.315 7-.58 1.482-1.18 2.96-1.82 4.42zM512.343 159.84c.396-.97 1.06-1.816 1.735-2.775 1.33-1.88 2.624-3.773 3.903-5.68 2.552-3.818 5.022-7.686 7.446-11.58 4.843-7.79 9.508-15.684 14.108-23.612 9.232-15.836 18.206-31.817 27.335-47.693 4.566-7.937 9.17-15.852 13.926-23.662 4.777-7.787 9.62-15.558 15.16-22.734 5.565-7.156 11.756-13.873 18.667-19.672 1.608-.12 3.213-.084 4.79.146 1.463.197 2.875.604 4.208 1.177-1.51 1.788-2.968 3.6-4.425 5.423-2.668 3.367-5.27 6.78-7.84 10.214-5.13 6.87-10.102 13.853-14.98 20.892-19.474 28.16-38.406 56.66-57.72 84.904L524.08 146.31l-7.362 10.5c-1.218 1.753-2.52 3.454-3.644 5.33-.02.028-.035.06-.053.09-.377-.32-.737-.665-1.077-1.02.078-.463.213-.926.4-1.37zM626.57 5.67c-2.154 3.646-4.446 7.242-6.776 10.81-4.646 7.145-9.452 14.2-14.385 21.17-9.856 13.956-19.99 27.744-30.087 41.554l-30.36 41.388-15.17 20.706-15.057 20.763c-.243.305-.494.615-.75.918-.02-.013-.045-.024-.064-.042-.027-.018-.053-.04-.078-.058.04-.068.075-.142.116-.212 1.083-1.79 2.39-3.488 3.624-5.242l7.42-10.475 14.68-21.055c19.56-28.08 38.926-56.303 58.702-84.2 4.957-6.966 10.007-13.85 15.203-20.62 2.597-3.385 5.228-6.742 7.917-10.042 1.594-1.94 3.205-3.88 4.854-5.76.105.07.207.145.31.22-.036.06-.068.118-.1.18zm-102.627 153.76c-.7.89-1.386 1.79-2.062 2.702l-1.002 1.375c-.353.488-.61.89-.974 1.212-.18.18-.377.332-.585.465-.478-.088-.963-.204-1.453-.354.262-.205.51-.424.735-.66.224-.213.433-.473.635-.703l.53-.703 2.023-2.762c2.73-3.664 5.56-7.254 8.44-10.807 5.77-7.098 11.71-14.062 17.762-20.935 12.087-13.76 24.433-27.29 36.674-40.936 6.118-6.823 12.214-13.672 18.203-20.623 5.976-6.965 11.913-13.982 17.362-21.446 5.306-7.39 9.978-15.244 13.76-23.558.19 3.852-.205 7.766-1.035 11.588-1.9 8.568-5.75 16.717-10.86 23.906-5.173 7.2-11.344 13.776-17.55 20.263-6.244 6.47-12.674 12.78-19.137 19.058-12.93 12.558-26.05 24.942-38.734 37.795-6.332 6.435-12.57 12.974-18.438 19.865-1.46 1.726-2.898 3.474-4.295 5.256zM632.323 6.635c-.486-.64-1.03-1.234-1.603-1.807.6-1.076 1.18-2.17 1.718-3.327.236-.525.466-1.043.67-1.678.092-.342.222-.62.222-1.323.002-.072-.013-.214-.04-.343-.008-.068-.053-.315-.246-.638-.018-.03-.027-.043-.045-.066 1.364 1.015 2.656 2.13 3.86 3.338-.003.013-.003.027-.003.043-.124 2.14-.53 4.32-1.062 6.478-.298 1.187-.64 2.365-1.012 3.537-.654-1.476-1.457-2.896-2.46-4.216zm1.918-13.243c.37.165.672.363.993.665.24.226.52.582.72.95.188.334.34.706.463 1.098-1.362-1.134-2.812-2.157-4.325-3.077.794-.017 1.54.092 2.15.363zM522.047 131.11c4.3-9.055 8.153-18.3 11.87-27.587 7.425-18.58 14.198-37.397 21.728-55.87 3.793-9.218 7.728-18.4 12.466-27.09 2.382-4.332 4.99-8.53 8.153-12.224 3.154-3.718 6.81-7.01 10.85-9.716 8.04-5.417 17.768-8.517 27.39-7.89 3.116.194 6.2.803 9.145 1.8-3.668 1.945-6.95 4.36-10.07 6.94-2.656.294-5.255.94-7.728 1.804-8.82 3.172-16.39 8.848-22.703 15.492-3.154 3.34-5.987 6.994-8.467 10.834-2.482 3.835-4.72 7.785-6.865 11.775-4.276 7.986-8.185 16.135-12.015 24.307-7.64 16.356-14.903 32.86-22.613 49.143-3.857 8.136-7.817 16.228-12.074 24.15-2.13 3.958-4.34 7.872-6.687 11.697-1.174 1.915-2.382 3.802-3.645 5.65l-.954 1.384c-.242.333-.508.767-.724 1.215-.323-.823-.48-1.58-.42-2.187l.465-.656c.73-1.035 1.43-2.078 2.112-3.137 1.365-2.117 2.66-4.272 3.895-6.457 2.474-4.37 4.738-8.85 6.89-13.377zm-84.518 138.694c-2.126-1.52-2.17-5.1-.1-7.994 2.068-2.894 5.468-4.01 7.593-2.49s2.17 5.097.102 7.992c-2.07 2.894-5.47 4.013-7.594 2.492zm179.72-190.572c-7.334 6.743-14.92 13.23-22.55 19.674-15.254 12.893-30.778 25.517-45.57 39.014-7.366 6.773-14.602 13.736-21.08 21.42-1.444 1.73-2.836 3.508-4.165 5.334-.1.047-.2.076-.297.145-.548.38-1.423.56-2.465.548.332-.358.618-.742.855-1.062l1.006-1.347c.68-.896 1.368-1.775 2.07-2.65 1.4-1.75 2.85-3.468 4.32-5.164 5.9-6.776 12.19-13.225 18.576-19.567 12.8-12.677 26.048-24.907 39.13-37.332 6.54-6.213 13.055-12.463 19.41-18.9 6.318-6.465 12.608-13.004 18.054-20.395l.005-.006c5.346-7.48 9.396-15.945 11.434-24.99.994-4.522 1.486-9.202 1.08-13.904-.12-1.397-.34-2.807-.647-4.202.955-2.53 1.803-5.11 2.472-7.766.323-1.316.6-2.656.812-4.016 5.688 7.412 8.127 17.084 7.564 26.47-.54 9.683-4.097 19.142-9.742 27.066-2.837 3.99-6.14 7.673-9.566 11.247-3.45 3.567-7.042 7.007-10.704 10.382zM447.885-19.503L394.66 20.202c-1.127.84-1.357 2.436-.518 3.56l66.98 89.788c2.155 2.89 33.477.17 38.17 6.462l35.06 46.995-3.228 2.407 74.812 104.54c4.202 5.635 12.18 6.792 17.813 2.59l4.53-3.38c5.637-4.205 6.793-12.18 2.592-17.813l-78.89-101.494-3.12 2.323-35.058-46.996c-5.202-6.974 7.284-34.812 4.62-38.383l-66.98-89.785c-.836-1.125-2.432-1.358-3.56-.518zm9.217 101.928c1.12 1.502.812 3.627-.688 4.748-1.5 1.118-3.628.81-4.748-.69l-43.27-58c-1.12-1.503-.81-3.63.69-4.75 1.502-1.12 3.628-.81 4.75.693l43.266 58zm11.978-4.703c-1.502 1.12-3.628.81-4.75-.69l-43.266-58c-1.12-1.503-.812-3.628.69-4.75 1.5-1.118 3.625-.81 4.747.694l43.27 57.998c1.12 1.503.81 3.627-.69 4.748zm146.754 183.48c-2.004 1.494-4.836 1.084-6.333-.92-1.493-2.004-1.08-4.838.924-6.332 2-1.494 4.836-1.08 6.33.922s1.08 4.836-.92 6.33zm-61.194-82.03c-2.004 1.494-4.838 1.085-6.33-.92-1.493-2.002-1.08-4.838.92-6.33 2.004-1.495 4.837-1.08 6.33.92 1.494 2.003 1.08 4.837-.92 6.33zM482.46 63.508c1.12 1.502.81 3.627-.69 4.747-1.502 1.122-3.627.814-4.748-.69l-43.268-58c-1.12-1.5-.81-3.626.69-4.748 1.5-1.12 3.628-.81 4.747.69l43.27 58zm12.645-9.433c1.12 1.5.812 3.625-.688 4.748-1.504 1.12-3.628.81-4.75-.693L446.402.13c-1.12-1.504-.81-3.628.69-4.75s3.626-.81 4.746.694l43.27 57.998z"/><g fill="#88A5A4"><path d="M154.887 106.9c10.69 0 21.297 2.385 31.823 7.148V129.4c-10.525-5.344-20.884-8.018-31.077-8.018-6.34 0-11.976 1.266-16.906 3.792-4.93 2.528-8.754 6.164-11.467 10.906-2.714 4.746-4.07 10.04-4.07 15.88 0 8.868 2.95 16.007 8.856 21.413 5.904 5.408 13.684 8.11 23.338 8.11 2.65 0 5.19-.227 7.614-.683s5.314-1.326 8.67-2.61v-14.42H157.31V150.66h31.14v35.8c-4.27 2.983-9.397 5.313-15.384 6.993-5.988 1.68-12.213 2.518-18.677 2.518-9.16 0-17.457-1.886-24.894-5.655-7.438-3.77-13.24-9.054-17.403-15.85-4.164-6.795-6.246-14.38-6.246-22.748 0-8.494 2.103-16.182 6.31-23.06 4.204-6.878 10.068-12.223 17.588-16.036 7.52-3.812 15.9-5.72 25.142-5.72zM245.042 108.02l36.84 86.83h-17.715l-9.012-21.134h-35.257l-8.39 21.133h-17.59l35-86.83h16.124zm-20.05 52.954h24.693l-13.027-34.37-11.665 34.37zM317.69 108.02c7.955 0 14.44 2.072 19.453 6.216 5.013 4.143 7.52 9.322 7.52 15.537 0 3.98-1.046 7.48-3.138 10.504-2.093 3.024-5.128 5.43-9.105 7.21v.747c6.05 1.366 10.762 4.07 14.14 8.11 3.377 4.04 5.066 8.772 5.066 14.2 0 4.808-1.233 9.105-3.698 12.897-2.466 3.794-5.884 6.642-10.255 8.548-4.372 1.906-9.52 2.86-15.445 2.86h-33.36v-86.83l28.82.002zm-4.476 36.05c4.433 0 7.934-1.058 10.504-3.17 2.57-2.112 3.854-5.056 3.854-8.826 0-3.357-1.18-6.02-3.543-7.987-2.363-1.968-5.47-2.952-9.324-2.952h-9.058v22.936h7.566zm3.915 37.665c5.675 0 9.964-1.066 12.865-3.2 2.9-2.134 4.35-5.272 4.35-9.417 0-3.688-1.44-6.6-4.32-8.732-2.88-2.133-6.743-3.2-11.59-3.2h-12.788v24.55h11.482zM408.738 108.02v13.114h-31.343v22.812h29.666v13.113h-29.665v24.675h32.214v13.114H360.61v-86.83h48.126z"/></g><g fill="#88A5A4"><path d="M670.55 108.02v73.715h39.14v13.114h-55.923v-86.83h16.782zM737.8 108.02v50.53c0 5.18.776 9.303 2.33 12.368 1.554 3.066 4.092 5.595 7.613 7.582 3.52 1.99 7.624 2.984 12.307 2.984 5.138 0 9.5-.94 13.084-2.828 3.583-1.885 6.204-4.453 7.862-7.707 1.656-3.253 2.486-7.76 2.486-13.52v-49.412h16.78v51.587c0 11.686-3.502 20.666-10.504 26.944-7.003 6.275-16.906 9.415-29.71 9.415-8.04 0-15.01-1.43-20.914-4.288-5.905-2.86-10.41-6.992-13.52-12.4-3.107-5.406-4.66-11.756-4.66-19.05v-52.21l16.845.003zM890.2 108.02l-50.593 73.715h50.842v13.114h-79.684l50.53-73.716h-47.484V108.02H890.2z"/></g><g fill="#F9F6F2"><path d="M154.887 100.9c10.69 0 21.297 2.385 31.823 7.148V123.4c-10.525-5.344-20.884-8.018-31.077-8.018-6.34 0-11.976 1.266-16.906 3.792-4.93 2.528-8.754 6.164-11.467 10.907-2.714 4.747-4.07 10.04-4.07 15.88 0 8.868 2.95 16.007 8.856 21.413 5.904 5.408 13.684 8.11 23.338 8.11 2.65 0 5.19-.227 7.614-.683s5.314-1.326 8.67-2.61v-14.42H157.31V144.66h31.14v35.8c-4.27 2.983-9.397 5.313-15.384 6.993-5.988 1.68-12.213 2.518-18.677 2.518-9.16 0-17.457-1.886-24.894-5.655-7.438-3.77-13.24-9.054-17.403-15.85-4.164-6.795-6.246-14.38-6.246-22.748 0-8.494 2.103-16.18 6.31-23.06 4.204-6.878 10.068-12.223 17.588-16.036 7.52-3.812 15.9-5.72 25.142-5.72zM245.042 102.02l36.84 86.83h-17.715l-9.012-21.134h-35.257l-8.39 21.133h-17.59l35-86.83h16.124zm-20.05 52.954h24.693l-13.027-34.37-11.665 34.37zM317.69 102.02c7.955 0 14.44 2.072 19.453 6.216 5.013 4.143 7.52 9.322 7.52 15.537 0 3.98-1.046 7.48-3.138 10.504-2.093 3.024-5.128 5.43-9.105 7.21v.747c6.05 1.366 10.762 4.07 14.14 8.11 3.377 4.04 5.066 8.772 5.066 14.2 0 4.808-1.233 9.105-3.698 12.897-2.466 3.794-5.884 6.642-10.255 8.548-4.372 1.906-9.52 2.86-15.445 2.86h-33.36v-86.83l28.82.002zm-4.476 36.05c4.433 0 7.934-1.058 10.504-3.17 2.57-2.113 3.854-5.056 3.854-8.826 0-3.357-1.18-6.02-3.543-7.987-2.363-1.968-5.47-2.952-9.324-2.952h-9.058v22.936h7.566zm3.915 37.665c5.675 0 9.964-1.066 12.865-3.2 2.9-2.134 4.35-5.272 4.35-9.417 0-3.688-1.44-6.6-4.32-8.732-2.88-2.133-6.743-3.2-11.59-3.2h-12.788v24.55h11.482zM408.738 102.02v13.114h-31.343v22.812h29.666v13.113h-29.665v24.675h32.214v13.114H360.61v-86.83h48.126z"/></g><g fill="#F9F6F2"><path d="M670.55 102.02v73.715h39.14v13.114h-55.923v-86.83h16.782zM737.8 102.02v50.53c0 5.18.776 9.303 2.33 12.368 1.554 3.066 4.092 5.595 7.613 7.582 3.52 1.99 7.624 2.984 12.307 2.984 5.138 0 9.5-.94 13.084-2.828 3.583-1.885 6.204-4.453 7.862-7.707 1.656-3.253 2.486-7.76 2.486-13.52v-49.412h16.78v51.587c0 11.686-3.502 20.666-10.504 26.944-7.003 6.275-16.906 9.415-29.71 9.415-8.04 0-15.01-1.43-20.914-4.288-5.905-2.86-10.41-6.992-13.52-12.4-3.107-5.406-4.66-11.756-4.66-19.05v-52.21l16.845.003zM890.2 102.02l-50.593 73.715h50.842v13.114h-79.684l50.53-73.716h-47.484V102.02H890.2z"/></g></svg>